<?xml version="1.0" encoding="utf-8"?>
<svg viewBox="0 0 32 32" width="32" height="32" style="shape-rendering:geometricPrecision; text-rendering:geometricPrecision; image-rendering:optimizeQuality; fill-rule:evenodd; clip-rule:evenodd" xmlns="http://www.w3.org/2000/svg">
  <defs>
    <style type="text/css">
   
    .fil0 {fill:#04D4AC;fill-rule:nonzero}
    .fil1 {fill:black;fill-rule:nonzero}
   
  </style>
  </defs>
  <g id="Capa_x0020_1">
    <path class="fil1" d="M 19.383 29.201 C 16.993 28.732 15.572 27.345 11.946 21.964 C 10.742 20.159 10.742 20.159 9.573 20.076 C 7.851 19.958 7.985 19.658 8.034 23.452 C 8.102 27.763 8.051 27.663 10.542 28.081 C 11.194 28.181 11.244 28.231 11.244 28.616 C 11.244 29.05 11.244 29.05 6.865 29.084 C 2.754 29.118 2.486 29.101 2.402 28.849 C 2.235 28.365 2.486 28.13 3.388 27.964 C 4.408 27.78 4.943 27.362 5.076 26.66 C 5.144 26.393 5.16 22.782 5.127 18.638 C 5.076 9.93 5.177 10.449 3.572 10.097 C 2.57 9.879 2.252 9.646 2.385 9.245 C 2.486 8.978 2.703 8.961 7.266 8.878 C 14.052 8.744 15.322 8.961 17.127 10.566 C 19.016 12.254 19.283 14.828 17.779 16.983 C 17.11 17.952 15.773 18.989 14.737 19.374 C 14.253 19.557 13.851 19.758 13.851 19.824 C 13.851 20.025 15.388 22.214 16.342 23.384 C 18.882 26.476 20.252 27.68 21.673 28.047 C 22.559 28.282 22.809 28.532 22.559 28.967 C 22.292 29.417 20.954 29.518 19.383 29.201 Z M 12.983 18.119 C 16.325 16.749 16.575 12.154 13.399 10.799 C 12.581 10.449 12.364 10.432 10.309 10.432 C 8.085 10.432 8.085 10.432 8.051 14.292 C 8.019 16.416 8.034 18.253 8.085 18.354 C 8.235 18.705 11.995 18.52 12.983 18.119 Z M 24.631 13.356 C 22.04 12.871 21.189 11.284 21.321 7.205 C 21.389 4.949 21.573 4.331 22.442 3.395 C 23.98 1.741 27.79 1.891 29.194 3.662 C 29.796 4.415 29.746 4.648 28.91 4.9 C 28.259 5.116 28.259 5.116 27.657 4.516 C 26.236 3.144 23.779 3.646 23.344 5.417 C 23.127 6.204 23.144 9.529 23.361 10.281 C 23.946 12.404 27.472 12.404 28.074 10.281 C 28.442 8.927 28.359 8.827 26.737 8.744 C 25.952 8.71 25.952 8.71 25.952 8.059 C 25.952 7.423 25.952 7.423 27.824 7.373 C 30.246 7.323 30.214 7.29 30.097 9.061 C 29.947 11.284 29.345 12.354 27.89 12.989 C 26.938 13.39 25.634 13.541 24.631 13.356 Z M 24.631 13.356 Z" style=""/>
  </g>
</svg>