<?xml version="1.0" standalone="no"?>
<!DOCTYPE svg PUBLIC "-//W3C//DTD SVG 20010904//EN"
 "http://www.w3.org/TR/2001/REC-SVG-20010904/DTD/svg10.dtd">
<svg version="1.0" xmlns="http://www.w3.org/2000/svg"
 width="512.000000pt" height="512.000000pt" viewBox="0 0 512.000000 512.000000"
 preserveAspectRatio="xMidYMid meet">
<metadata>
Created by potrace 1.16, written by Peter Selinger 2001-2019
</metadata>
<g transform="translate(0.000000,512.000000) scale(0.100000,-0.100000)"
fill="#FFFFFF" stroke="none">
<path d="M1485 3737 l-849 -532 583 -3 583 -2 -7 -28 c-16 -63 -22 -193 -14
-282 17 -180 64 -287 173 -396 118 -118 270 -177 487 -190 l109 -7 0 -105 0
-105 38 -36 c45 -41 67 -75 76 -112 l6 -26 -125 -7 c-246 -14 -442 -58 -604
-137 -87 -43 -116 -63 -185 -132 -118 -118 -166 -233 -166 -402 0 -317 203
-537 575 -623 119 -28 307 -44 425 -36 508 33 822 225 930 569 31 98 39 303
16 395 -43 169 -133 288 -371 490 -138 118 -168 149 -191 195 -26 55 -26 56
-9 100 13 34 41 67 118 138 140 127 198 189 237 254 73 120 96 252 80 465 -11
152 -25 210 -73 289 l-34 57 216 161 216 162 3 -228 2 -227 -30 -24 c-61 -48
-74 -90 -78 -256 -4 -168 4 -215 50 -270 43 -53 95 -76 168 -76 73 0 125 23
169 77 43 52 54 113 49 278 -4 156 -19 203 -78 247 l-30 22 0 313 0 313 160
120 c88 66 160 123 160 125 0 3 -435 5 -967 4 l-968 0 -850 -532z m1177 -170
c86 -42 174 -128 227 -219 193 -339 105 -782 -170 -848 -262 -63 -548 271
-549 641 0 141 49 286 127 369 101 110 221 129 365 57z m183 -1821 c165 -44
318 -157 380 -281 27 -54 30 -70 30 -155 0 -88 -3 -100 -34 -165 -86 -176
-300 -306 -546 -334 -289 -33 -583 95 -682 297 -25 51 -28 68 -28 157 0 81 4
109 21 145 81 173 265 300 499 346 88 17 278 12 360 -10z"/>
</g>
</svg>
