<?xml version="1.0" encoding="UTF-8" standalone="no"?>
<!-- Created with Inkscape (http://www.inkscape.org/) -->

<svg
   xmlns:dc="http://purl.org/dc/elements/1.1/"
   xmlns:cc="http://creativecommons.org/ns#"
   xmlns:rdf="http://www.w3.org/1999/02/22-rdf-syntax-ns#"
   xmlns:svg="http://www.w3.org/2000/svg"
   xmlns="http://www.w3.org/2000/svg"
   xmlns:sodipodi="http://sodipodi.sourceforge.net/DTD/sodipodi-0.dtd"
   xmlns:inkscape="http://www.inkscape.org/namespaces/inkscape"
   width="210mm"
   height="297mm"
   viewBox="0 0 210 297"
   version="1.1"
   id="svg8"
   inkscape:version="0.92.2 (5c3e80d, 2017-08-06)"
   sodipodi:docname="desenhando.svg"
   inkscape:export-filename="C:\Users\luizs\Desktop\desenhando.png"
   inkscape:export-xdpi="96"
   inkscape:export-ydpi="96">
  <defs
     id="defs2">
    <clipPath
       clipPathUnits="userSpaceOnUse"
       id="clipPath854">
      <g
         inkscape:label="Clip"
         id="use856"
         style="fill:#f6c500;fill-opacity:1;stroke:none;stroke-width:2.70000005;stroke-linecap:butt;stroke-linejoin:round;stroke-miterlimit:0.1;stroke-dasharray:none;stroke-opacity:1;paint-order:normal">
        <g
           aria-label="L"
           transform="scale(1.0013041,0.99869758)"
           style="font-style:normal;font-weight:normal;font-size:44.5655098px;line-height:1.25;font-family:sans-serif;letter-spacing:0px;word-spacing:0px;fill:#f6c500;fill-opacity:1;stroke:none;stroke-width:2.70000005;stroke-linecap:butt;stroke-linejoin:round;stroke-miterlimit:0.1;stroke-dasharray:none;stroke-opacity:1;paint-order:normal"
           id="g935">
          <path
             d="m 45.71098,113.18183 h 7.264178 l -5.080468,25.31321 h 15.642494 l -1.203269,5.88265 H 39.471809 Z"
             style="font-style:italic;font-variant:normal;font-weight:bold;font-stretch:normal;font-family:Montserrat;-inkscape-font-specification:'Montserrat Bold Italic';fill:#f6c500;fill-opacity:1;stroke:none;stroke-width:2.70000005;stroke-linecap:butt;stroke-linejoin:round;stroke-miterlimit:0.1;stroke-dasharray:none;stroke-opacity:1;paint-order:normal"
             id="path933"
             inkscape:connector-curvature="0" />
        </g>
        <g
           aria-label="S"
           transform="scale(1.0013041,0.99869759)"
           style="font-style:normal;font-weight:normal;font-size:44.5655098px;line-height:1.25;font-family:sans-serif;letter-spacing:0px;word-spacing:0px;fill:#f6c500;fill-opacity:1;stroke:none;stroke-width:2.70000005;stroke-linecap:butt;stroke-linejoin:round;stroke-miterlimit:0.1;stroke-dasharray:none;stroke-opacity:1;paint-order:normal"
           id="g939">
          <path
             d="m 65.485838,167.97955 q -3.698937,0 -7.085916,-0.98044 -3.386978,-0.98044 -5.436992,-2.49567 l 2.941324,-5.57069 q 2.139144,1.55979 4.813075,2.40654 2.67393,0.84674 5.481558,0.84674 2.985889,0 4.723944,-0.98044 1.738054,-0.98044 1.738054,-2.67393 0,-1.38153 -1.38153,-2.09458 -1.381531,-0.75761 -4.411986,-1.60436 -3.030454,-0.89131 -4.946771,-1.69349 -1.916317,-0.84674 -3.342414,-2.49566 -1.38153,-1.64893 -1.38153,-4.36742 0,-3.16416 1.738054,-5.57069 1.782621,-2.40654 4.991338,-3.69894 3.253282,-1.2924 7.531571,-1.2924 3.164151,0 5.971778,0.71305 2.807627,0.66848 4.813075,1.96088 l -2.718496,5.52612 q -1.738055,-1.20326 -3.921765,-1.78262 -2.18371,-0.62391 -4.545682,-0.62391 -3.07502,0 -4.85764,1.06957 -1.782621,1.06957 -1.782621,2.76306 0,1.02501 0.757614,1.73806 0.757613,0.66848 1.916317,1.11413 1.158703,0.40109 3.253282,0.98044 2.985889,0.80218 4.902206,1.64893 1.916317,0.80218 3.253282,2.40654 1.381531,1.55979 1.381531,4.14459 0,3.20871 -1.78262,5.61525 -1.782621,2.36197 -5.035903,3.69894 -3.253282,1.2924 -7.576137,1.2924 z"
             style="font-style:italic;font-variant:normal;font-weight:bold;font-stretch:normal;font-family:Montserrat;-inkscape-font-specification:'Montserrat Bold Italic';fill:#f6c500;fill-opacity:1;stroke:none;stroke-width:2.70000005;stroke-linecap:butt;stroke-linejoin:round;stroke-miterlimit:0.1;stroke-dasharray:none;stroke-opacity:1;paint-order:normal"
             id="path937"
             inkscape:connector-curvature="0" />
        </g>
      </g>
    </clipPath>
  </defs>
  <sodipodi:namedview
     id="base"
     pagecolor="#ffffff"
     bordercolor="#666666"
     borderopacity="1.0"
     inkscape:pageopacity="0.0"
     inkscape:pageshadow="2"
     inkscape:zoom="1.8950462"
     inkscape:cx="245.77613"
     inkscape:cy="561.0845"
     inkscape:document-units="mm"
     inkscape:current-layer="layer1"
     showgrid="false"
     inkscape:window-width="1366"
     inkscape:window-height="705"
     inkscape:window-x="-8"
     inkscape:window-y="-8"
     inkscape:window-maximized="1" />
  <metadata
     id="metadata5">
    <rdf:RDF>
      <cc:Work
         rdf:about="">
        <dc:format>image/svg+xml</dc:format>
        <dc:type
           rdf:resource="http://purl.org/dc/dcmitype/StillImage" />
        <dc:title />
      </cc:Work>
    </rdf:RDF>
  </metadata>
  <g
     inkscape:label="Camada 1"
     inkscape:groupmode="layer"
     id="layer1">
    <path
       style="font-style:italic;font-variant:normal;font-weight:bold;font-stretch:normal;font-size:medium;line-height:1.25;font-family:Montserrat;-inkscape-font-specification:'Montserrat Bold Italic';letter-spacing:0px;word-spacing:0px;fill:#f6c500;fill-opacity:1;stroke:none;stroke-width:6.04724417;stroke-linecap:butt;stroke-linejoin:round;stroke-miterlimit:0.1;stroke-dasharray:none;stroke-opacity:1;paint-order:normal"
       d="M 172.99219 427.2168 L 149.37891 544.96875 L 217.09766 544.96875 C 216.67184 547.26482 216.45898 549.65356 216.45898 552.13477 C 216.45898 558.97558 218.20194 564.46977 221.6875 568.61914 C 225.2855 572.76848 229.50113 575.91027 234.33594 578.04102 C 239.17075 580.05964 245.41089 582.18877 253.05664 584.43164 C 260.70239 586.56241 266.26835 588.58184 269.75391 590.48828 C 273.23947 592.28262 274.98242 594.91805 274.98242 598.39453 C 274.98242 602.65602 272.78936 606.02111 268.4043 608.48828 C 264.01924 610.95548 258.06066 612.1875 250.52734 612.1875 C 243.44378 612.1875 236.5275 611.12293 229.78125 608.99219 C 223.035 606.86142 216.9634 603.83327 211.56641 599.9082 L 200.43555 620.93555 C 205.60767 624.74849 212.46647 627.88829 221.01172 630.35547 C 229.55697 632.82264 238.49581 634.05664 247.82812 634.05664 C 258.73456 634.05664 268.29207 632.42994 276.5 629.17773 C 284.70794 625.8134 291.06109 621.16048 295.55859 615.2168 C 300.05609 609.16099 302.30469 602.09589 302.30469 594.02148 C 302.30469 587.51707 300.56173 582.30202 297.07617 578.37695 C 293.70305 574.33974 289.59848 571.31156 284.76367 569.29297 C 279.92886 567.1622 273.74425 565.08695 266.21094 563.06836 C 260.92637 561.61047 256.82376 560.3765 253.90039 559.36719 C 250.97701 558.24575 248.55987 556.84428 246.64844 555.16211 C 244.737 553.36779 243.78125 551.18089 243.78125 548.60156 C 243.78125 544.34004 246.02984 540.86333 250.52734 538.17188 C 255.02484 535.4804 261.15197 534.13477 268.91016 534.13477 C 274.86934 534.13477 280.60384 534.92022 286.11328 536.49023 C 291.62272 537.94812 296.57002 540.19087 300.95508 543.21875 L 311.24219 522.35938 C 306.1825 519.10719 300.1109 516.64115 293.02734 514.95898 C 285.94378 513.16464 278.41079 512.26758 270.42773 512.26758 C 259.63374 512.26758 250.13372 513.89232 241.92578 517.14453 C 238.06191 518.69676 234.6126 520.57277 231.56836 522.76367 L 181.25586 522.76367 L 200.48242 427.2168 L 172.99219 427.2168 z "
       transform="scale(0.26458333)"
       id="path925" />
    <path
       style="color:#000000;font-style:italic;font-variant:normal;font-weight:bold;font-stretch:normal;font-size:medium;line-height:1.25;font-family:Montserrat;-inkscape-font-specification:'Montserrat Bold Italic';font-variant-ligatures:normal;font-variant-position:normal;font-variant-caps:normal;font-variant-numeric:normal;font-variant-alternates:normal;font-feature-settings:normal;text-indent:0;text-align:start;text-decoration:none;text-decoration-line:none;text-decoration-style:solid;text-decoration-color:#000000;letter-spacing:0px;word-spacing:0px;text-transform:none;writing-mode:lr-tb;direction:ltr;text-orientation:mixed;dominant-baseline:auto;baseline-shift:baseline;text-anchor:start;white-space:normal;shape-padding:0;clip-rule:nonzero;display:inline;overflow:visible;visibility:visible;opacity:1;isolation:auto;mix-blend-mode:normal;color-interpolation:sRGB;color-interpolation-filters:linearRGB;solid-color:#000000;solid-opacity:1;vector-effect:none;fill:#ffffff;fill-opacity:1;fill-rule:nonzero;stroke:none;stroke-width:1.60000002;stroke-linecap:butt;stroke-linejoin:round;stroke-miterlimit:0.1;stroke-dasharray:none;stroke-dashoffset:0;stroke-opacity:1;paint-order:normal;color-rendering:auto;image-rendering:auto;shape-rendering:auto;text-rendering:auto;enable-background:accumulate"
       d="m 45.959688,112.50348 a 0.80008001,0.80008001 0 0 0 -0.78515,0.64258 l -6.248051,31.15625 a 0.80008001,0.80008001 0 0 0 0.785156,0.95703 h 17.046875 c -0.035,0.36462 -0.0976,0.7187 -0.0976,1.0957 0,1.94586 0.50885,3.61337 1.57031,4.87696 a 0.80008001,0.80008001 0 0 0 0.008,0.01 c 1.02365,1.18052 2.24117,2.08763 3.62891,2.69922 a 0.80008001,0.80008001 0 0 0 0.0137,0.008 c 1.3205,0.55134 2.99577,1.11993 5.03711,1.71875 a 0.80008001,0.80008001 0 0 0 0.01,0.004 c 1.99375,0.55563 3.43173,1.08672 4.24805,1.5332 a 0.80008001,0.80008001 0 0 0 0.0176,0.01 c 0.73529,0.37852 0.95117,0.72842 0.95117,1.38086 0,0.85305 -0.34536,1.41643 -1.33398,1.97265 -0.98948,0.55672 -2.43193,0.87696 -4.33789,0.87696 -1.79405,0 -3.53988,-0.26908 -5.24805,-0.8086 -1.70883,-0.53973 -3.23441,-1.30134 -4.58984,-2.28711 a 0.80008001,0.80008001 0 0 0 -1.17774,0.27149 l -2.94336,5.56445 a 0.80008001,0.80008001 0 0 0 0.23047,1.01758 c 1.47152,1.08482 3.37216,1.94589 5.69727,2.61719 2.33547,0.6743 4.77866,1.00976 7.31836,1.00976 2.9652,0 5.59639,-0.44053 7.88086,-1.3457 a 0.80008001,0.80008001 0 0 0 0.008,-0.004 c 2.27714,-0.93337 4.08947,-2.2497 5.37695,-3.95117 a 0.80008001,0.80008001 0 0 0 0.004,-0.006 c 1.29145,-1.73891 1.94336,-3.80106 1.94336,-6.08594 0,-1.86115 -0.51729,-3.46207 -1.58203,-4.66406 -0.96566,-1.1517 -2.15541,-2.02981 -3.53711,-2.60937 -1.33419,-0.588 -3.00359,-1.14628 -5.02344,-1.6875 h 0.006 c -1.37797,-0.38016 -2.43898,-0.69874 -3.1836,-0.95508 -0.69638,-0.26715 -1.24351,-0.58972 -1.66211,-0.95508 -0.36062,-0.34118 -0.50195,-0.66502 -0.50195,-1.14648 0,-0.84611 0.36618,-1.4557 1.39649,-2.07227 1.01605,-0.60805 2.49295,-0.95508 4.45312,-0.95508 1.5064,0 2.94741,0.19918 4.33203,0.59375 a 0.80008001,0.80008001 0 0 0 0.0137,0.004 c 1.37606,0.36412 2.59704,0.91784 3.67774,1.66406 a 0.80008001,0.80008001 0 0 0 1.17187,-0.30469 l 2.72071,-5.51758 a 0.80008001,0.80008001 0 0 0 -0.28321,-1.02734 c -1.42838,-0.91812 -3.122,-1.60057 -5.0664,-2.0625 h -0.002 c -1.94027,-0.49044 -3.99609,-0.73437 -6.16406,-0.73437 -2.93619,0 -5.55255,0.44096 -7.83594,1.3457 a 0.80008001,0.80008001 0 0 0 -0.004,0.002 c -0.97379,0.3912 -1.83209,0.88446 -2.63086,1.42969 h -12.14453 l 4.89258,-24.32227 a 0.80008001,0.80008001 0 0 0 -0.78405,-0.95964 z m 0.6543,1.59961 h 5.64063 l -4.89258,24.32227 a 0.80008001,0.80008001 0 0 0 0.7832,0.95898 h 13.3125 a 0.80008001,0.80008001 0 0 0 0.4668,-0.15039 c 0.74864,-0.5388 1.60402,-1.00557 2.57226,-1.39453 2.05914,-0.81523 4.46827,-1.23242 7.24219,-1.23242 2.05225,0 3.97837,0.2303 5.78321,0.6875 a 0.80008001,0.80008001 0 0 0 0.0117,0.004 c 1.54279,0.36637 2.77659,0.9422 3.91211,1.58399 l -2.00976,4.07617 c -1.04032,-0.61234 -2.10646,-1.18777 -3.33594,-1.51367 -1.52844,-0.43478 -3.11746,-0.65235 -4.76172,-0.65235 -2.14518,0 -3.91152,0.36545 -5.27539,1.18164 -1.34964,0.80767 -2.17383,2.03638 -2.17383,3.44532 0,0.88007 0.36457,1.71464 1.00977,2.32031 a 0.80008001,0.80008001 0 0 0 0.0195,0.0176 c 0.5914,0.52045 1.31822,0.93408 2.16211,1.25781 a 0.80008001,0.80008001 0 0 0 0.0254,0.01 c 0.8016,0.27677 1.89725,0.60586 3.30469,0.99414 a 0.80008001,0.80008001 0 0 0 0.006,0.002 c 1.9665,0.52693 3.56873,1.06593 4.79297,1.60547 a 0.80008001,0.80008001 0 0 0 0.0137,0.006 c 1.16526,0.4865 2.13919,1.20551 2.95312,2.17968 a 0.80008001,0.80008001 0 0 0 0.0156,0.0176 c 0.77653,0.87445 1.18164,2.02938 1.18164,3.60742 0,1.9862 -0.5383,3.66218 -1.625,5.12696 -1.09235,1.4427 -2.64185,2.58905 -4.70703,3.43554 -2.05691,0.81338 -4.47934,1.23047 -7.28125,1.23047 -2.39866,0 -4.68667,-0.31601 -6.87305,-0.94726 -1.90835,-0.55098 -3.39645,-1.24764 -4.60156,-2.02735 l 2.22656,-4.20507 c 1.30783,0.84626 2.67289,1.61875 4.23242,2.11132 1.86171,0.58801 3.77417,0.88282 5.72852,0.88282 2.08041,0 3.79211,-0.3332 5.12304,-1.08204 1.33182,-0.74931 2.14844,-1.9652 2.14844,-3.36718 0,-1.18628 -0.70874,-2.22951 -1.81641,-2.80078 -1.02786,-0.56024 -2.52519,-1.09412 -4.57031,-1.66407 l 0.01,0.002 c -1.99876,-0.58633 -3.61888,-1.1387 -4.85547,-1.6543 l -0.004,-0.002 c -1.16734,-0.51515 -2.17822,-1.26745 -3.05664,-2.2793 -0.78015,-0.93152 -1.1914,-2.17085 -1.1914,-3.8418 0,-0.61073 0.0511,-1.19331 0.15429,-1.75 a 0.80008001,0.80008001 0 0 0 -0.78515,-0.94531 h -16.94166 z"
       id="path958"
       inkscape:connector-curvature="0"
       inkscape:export-xdpi="96"
       inkscape:export-ydpi="96" />
    <path
       style="color:#000000;font-style:italic;font-variant:normal;font-weight:bold;font-stretch:normal;font-size:medium;line-height:1.25;font-family:Montserrat;-inkscape-font-specification:'Montserrat Bold Italic';font-variant-ligatures:normal;font-variant-position:normal;font-variant-caps:normal;font-variant-numeric:normal;font-variant-alternates:normal;font-feature-settings:normal;text-indent:0;text-align:start;text-decoration:none;text-decoration-line:none;text-decoration-style:solid;text-decoration-color:#000000;letter-spacing:0px;word-spacing:0px;text-transform:none;writing-mode:lr-tb;direction:ltr;text-orientation:mixed;dominant-baseline:auto;baseline-shift:baseline;text-anchor:start;white-space:normal;shape-padding:0;clip-rule:nonzero;display:inline;overflow:visible;visibility:visible;opacity:1;isolation:auto;mix-blend-mode:normal;color-interpolation:sRGB;color-interpolation-filters:linearRGB;solid-color:#000000;solid-opacity:1;vector-effect:none;fill:#000000;fill-opacity:1;fill-rule:nonzero;stroke:#000000;stroke-width:0.69999999;stroke-linecap:butt;stroke-linejoin:round;stroke-miterlimit:0.1;stroke-dasharray:none;stroke-dashoffset:0;stroke-opacity:1;paint-order:normal;color-rendering:auto;image-rendering:auto;shape-rendering:auto;text-rendering:auto;enable-background:accumulate"
       d="m 71.4832,157.38182 c 0.502325,0.32175 0.66249,0.65797 0.66249,1.2144 0,0.85305 -0.345149,1.41627 -1.333767,1.97249 -0.989481,0.55672 -2.431762,0.87695 -4.337719,0.87695 -1.794053,0 -3.540091,-0.2687 -5.248259,-0.80822 -1.70883,-0.53973 -3.234471,-1.30143 -4.589902,-2.2872 a 0.80007999,0.80007999 0 0 0 -1.177706,0.2713 l -2.943489,5.56452 a 0.80007999,0.80007999 0 0 0 0.230476,1.01751 c 1.47152,1.08482 3.372218,1.94611 5.697328,2.61741 2.335469,0.6743 4.778716,1.00975 7.318415,1.00975 2.965201,0 5.596186,-0.44048 7.880657,-1.34565 a 0.80007999,0.80007999 0 0 0 0.0083,-0.004 c 2.277139,-0.93337 4.089453,-2.24971 5.376934,-3.95118 a 0.80007999,0.80007999 0 0 0 0.0041,-0.006 c 1.291449,-1.73891 1.943033,-3.80106 1.943033,-6.08594 0,-0.019 -0.002,-0.0369 -0.0021,-0.0558 h -1.60042 c 1.22e-4,0.0191 0.0021,0.0366 0.0021,0.0558 0,1.9862 -0.538007,3.66256 -1.624706,5.12734 -1.092351,1.4427 -2.642026,2.58896 -4.707207,3.43545 -2.056911,0.81338 -4.479298,1.23041 -7.281209,1.23041 -2.39866,0 -4.686586,-0.31597 -6.872965,-0.94723 -1.908349,-0.55097 -3.396676,-1.24755 -4.601787,-2.02726 l 2.226739,-4.20543 c 1.30783,0.84626 2.672768,1.61893 4.232299,2.1115 1.861709,0.58801 3.774498,0.88263 5.728848,0.88263 2.080411,0 3.791754,-0.33326 5.122685,-1.0821 1.33182,-0.74931 2.148705,-1.96474 2.148705,-3.36672 0,-0.42867 -0.09359,-0.83861 -0.264065,-1.2144 z"
       id="path962"
       inkscape:connector-curvature="0" />
    <g
       aria-label="E"
       transform="scale(1.4449172,0.6920812)"
       style="font-style:normal;font-weight:normal;font-size:86.60262299px;line-height:1.25;font-family:sans-serif;letter-spacing:0px;word-spacing:0px;fill:#000000;fill-opacity:1;stroke:none;stroke-width:2.16506553"
       id="text994" />
  </g>
</svg>
